# xmcd CD database file
#
# Track frame offsets:
#	150
#	14390
#	28104
#	41878
#	58761
#	72158
#	82764
#	94339
#	111355
#	123397
#	137759
#	149303
#	162990
#	176604
#	187802
#	202011
#	217410
#	228874
#	242502
#	255088
#	267172
#
# Disc length: 3728 seconds
#
# Revision: 0
# Processed by: cddbd v1.5.1PL0 Copyright (c) Steve Scherf et al.
# Submitted via: CDex 1.51
#
DISCID=2c0e8e15
DTITLE=Sonny Stitt - Modern Jazz Archive - CD1
DYEAR=1900
DGENRE=Jazz
TTITLE0=Elora
TTITLE1=Afternoon in Paris
TTITLE2=Teapot
TTITLE3=Blue Mode
TTITLE4=All God's Chillun Got Rhythm
TTITLE5=Sonny Side
TTITLE6=Bud's Blues
TTITLE7=Sunset
TTITLE8=Fine And Dandy
TTITLE9=I Want To Be Happy
TTITLE10=Taking A Chance Of Love
TTITLE11=Ain't Misbehavin'
TTITLE12=Later
TTITLE13=After You've Gone
TTITLE14=Our Very Own
TTITLE15=Imagination
TTITLE16=Cherokee
TTITLE17=P.S. I Love You
TTITLE18=This Can't Be Love
TTITLE19=Can't We Be Friends
TTITLE20=Liza (All Clouds I Roll Away)
EXTD=
EXTT0=
EXTT1=
EXTT2=
EXTT3=
EXTT4=
EXTT5=
EXTT6=
EXTT7=
EXTT8=
EXTT9=
EXTT10=
EXTT11=
EXTT12=
EXTT13=
EXTT14=
EXTT15=
EXTT16=
EXTT17=
EXTT18=
EXTT19=
EXTT20=
PLAYORDER=
